<svg xmlns="http://www.w3.org/2000/svg" version="1.1" xmlns:xlink="http://www.w3.org/1999/xlink" xmlns:svgjs="http://svgjs.dev/svgjs" width="100%" height="100%" viewBox="0 0 1000 600"><rect width="1000" height="600" x="0" y="0" fill="#EEEE"/><g><circle r="166.66666666666666" cx="413.1316477457682" cy="435.35386485130834" fill="#EEEE" transform="matrix(0.5071714321162513,0,0,0.5071714321162513,0,79.20094791210518)"/><path d="M306.14637096709185 362.55974473179197L306.14637096709185 491.60385473749454L389.51033661892393 491.60385473749454L389.51033661892393 508.1479714048923L288.49931318853425 508.1479714048923L288.49931318853425 362.55974473179197L306.14637096709185 362.55974473179197ZM520.1169465321029 464.2447877301127L537.7640043106605 470.8624343970718Q533.1071418413189 483.20924739144453 524.5287109767423 492.15532529307444Q515.919642859078 501.10140319470435 504.3387611918995 505.7276284109582Q492.7578795247211 510.353853627212 479.06302739448626 510.353853627212L479.06302739448626 510.353853627212Q458.3522443071513 510.353853627212 443.21744128179114 501.1933149539677Q428.1132755095187 492.03277628072334 419.8412171758198 475.27419884171115Q411.56915884212094 458.515621402699 411.56915884212094 435.3538580683421L411.56915884212094 435.3538580683421Q411.56915884212094 412.19209473398524 419.8412171758198 395.4335172949731Q428.1132755095187 378.67493985596093 443.21744128179114 369.5144011827166Q458.3522443071513 360.35386250947226 478.63410585125746 360.35386250947226L478.63410585125746 360.35386250947226Q492.7578795247211 360.35386250947226 503.78729063631954 364.21415639853177Q514.8167017479182 368.0744502875912 522.6292012853004 375.6724890533591Q530.4723380757705 383.30116507221476 535.0985632920242 394.3305761838132L535.0985632920242 394.3305761838132L517.665966285081 402.480085505161Q512.8252802972128 389.9188117391738 503.66474162396855 383.3930768314781Q494.5042029507241 376.89797917687 479.9515077340317 376.89797917687L479.9515077340317 376.89797917687Q465.1843517457248 376.89797917687 453.9404798625119 383.85263562779465Q442.6659707262112 390.8072920787193 436.3853338432176 403.7974873879353Q430.104696960224 416.8183199502391 430.104696960224 435.3538580683421L430.104696960224 435.3538580683421Q430.104696960224 453.67493541483077 436.0483240592521 466.7876797363979Q442.0225884113679 479.90042405796504 453.0519995229664 486.8550805088896Q464.0814106345649 493.80973695981424 479.06302739448626 493.80973695981424L479.06302739448626 493.80973695981424Q493.6463598642665 493.80973695981424 504.4306729511628 486.42615896566076Q515.245623291147 479.04258097150733 520.1169465321029 464.2447877301127L520.1169465321029 464.2447877301127Z " fill="#31363f" transform="matrix(0.5071714321162513,0,0,0.5071714321162513,0,79.20094791210518)"/><path d="M675.8976102331133 371.52407312634233L675.8976102331133 464.87513653520045L736.203461025018 464.87513653520045L736.203461025018 476.84322158761813L663.1316528438676 476.84322158761813L663.1316528438676 371.52407312634233L675.8976102331133 371.52407312634233ZM802.7593117887409 447.3219451249878L802.7593117887409 425.29180338035223Q802.7593117887409 416.3600658319738 797.9720777677738 411.50634244960446Q793.1848437468067 406.6304559467676 784.4082480417004 406.6304559467676L784.4082480417004 406.6304559467676Q776.0970778664104 406.6304559467676 770.3568296653433 410.2208814624929Q764.6165814642762 413.8113069782182 761.8905176467812 421.79003034649674L761.8905176467812 421.79003034649674L751.5181772680191 415.4070516518739Q754.7096666153305 406.4753141034955 763.3311204771647 400.9566971071029Q771.9525743389989 395.46024323117774 784.7185317282446 395.46024323117774L784.7185317282446 395.46024323117774Q793.3399855900788 395.46024323117774 800.3656947782573 398.4079382533473Q807.3692408459684 401.3556332755168 811.4472550119774 407.3396758017257Q815.5252691779864 413.32371832793456 815.5252691779864 422.74304452659663L815.5252691779864 422.74304452659663L815.5252691779864 461.3733635013449Q815.5252691779864 467.1136117024119 821.5758010655976 467.1136117024119L821.5758010655976 467.1136117024119Q824.6121485696369 467.1136117024119 827.4933542304042 466.3157393655841L827.4933542304042 466.3157393655841L826.8506237368483 476.35563293733446Q823.6591343895369 477.95137761099016 818.5394535615583 477.95137761099016L818.5394535615583 477.95137761099016Q813.9295245043307 477.95137761099016 810.2504465067356 476.2004910940624Q806.5713685091406 474.4496045771346 804.5101983056686 470.8591790614093Q802.4268649817292 467.268753545684 802.4268649817292 461.8387890311612L802.4268649817292 461.8387890311612L802.4268649817292 460.2430443575054L805.6183543290406 460.73063300778915Q803.7123259688408 466.9584698591398 799.0802337911458 470.8591790614093Q794.4481416134507 474.75988826367876 788.7078934123838 476.5994272624763Q782.9676452113167 478.43896626127383 777.3825388535219 478.43896626127383L777.3825388535219 478.43896626127383Q770.3568296653433 478.43896626127383 764.2841346572646 476.0453492507903Q758.2336027696535 473.6517322403068 754.6431772539281 468.7758457374699Q751.0527517382029 463.9221223551005 751.0527517382029 456.74127132364987L751.0527517382029 456.74127132364987Q751.0527517382029 447.8095337752715 757.0367942644118 441.9806330923347Q763.0208367906206 436.15173240939794 773.7034608559268 434.06839908545857L773.7034608559268 434.06839908545857L805.3080706424965 427.86272535457533L805.3080706424965 438.3902075766094L779.6210140207334 443.6428671273927Q771.7974324957269 445.2386118010484 767.9632126548597 448.11981746181567Q764.1289928139926 451.0010231225829 764.1289928139926 456.0985408300941L764.1289928139926 456.0985408300941Q764.1289928139926 461.0409166943333 768.0518651367295 464.16591668024233Q771.9525743389989 467.268753545684 779.1334253704496 467.268753545684L779.1334253704496 467.268753545684Q783.7655175481447 467.268753545684 787.9986735574257 466.07194504044224Q792.2096664462393 464.87513653520045 795.5784607572903 462.3928670428472Q798.9250919478737 459.9327606709613 800.8311203080735 456.1871933119639Q802.7593117887409 452.41946283249905 802.7593117887409 447.3219451249878L802.7593117887409 447.3219451249878ZM859.2309427397785 510.35385973438775L846.4649853505329 510.35385973438775L846.4649853505329 397.05598790483344L857.6351980661228 397.05598790483344L858.7655172099622 416.51520767524596L857.0146306930345 414.2988956285019Q859.0758008965064 408.71378927070697 863.2203044239177 404.4806332614259Q867.3869710717964 400.24747725214485 873.2823611161356 397.85386024166127Q879.1777511604747 395.46024323117774 886.0483185053811 395.46024323117774L886.0483185053811 395.46024323117774Q895.7779283905874 395.46024323117774 904.0004460840076 400.4026190954169Q912.2229637774279 405.3449949596561 917.1653396416672 414.6091793150461Q922.1077155059063 423.8733636704361 922.1077155059063 436.9496047462258L922.1077155059063 436.9496047462258Q922.1077155059063 449.87070397874345 917.0766871597974 459.20137769553577Q912.0678219341559 468.5542145327955 903.7566517588658 473.4965903970347Q895.4676447040432 478.43896626127383 885.5607298550974 478.43896626127383L885.5607298550974 478.43896626127383Q875.675978126619 478.43896626127383 868.2513327700266 473.563079758437Q860.8266874134341 468.7093563760676 857.6351980661228 461.1960585376054L857.6351980661228 461.1960585376054L859.2309427397785 458.80244152712186L859.2309427397785 510.35385973438775ZM884.2974319884534 467.268753545684L884.2974319884534 467.268753545684Q896.110375197599 467.268753545684 902.7149850968962 458.9797464908614Q909.3417581166608 450.6685763155713 909.3417581166608 436.9496047462258L909.3417581166608 436.9496047462258Q909.3417581166608 423.2306331768803 902.8922900606357 414.91946300159026Q896.4206588841431 406.6304559467676 884.7628575182696 406.6304559467676L884.7628575182696 406.6304559467676Q877.1165809570027 406.6304559467676 871.3763327559357 410.376023305765Q865.6139214344013 414.1215906647624 862.4224320870899 420.9035055277991Q859.2309427397785 427.6854203908358 859.2309427397785 436.9496047462258L859.2309427397785 436.9496047462258Q859.2309427397785 446.03648413787624 862.3559427256876 452.9070514827827Q865.4587795911292 459.7776188276892 871.1325384307938 463.5231861866866Q876.7841341499911 467.268753545684 884.2974319884534 467.268753545684ZM952.5820061486365 377.9070518209651L965.347963537882 374.4052787871096L965.347963537882 454.8130798429826Q965.347963537882 460.73063300778915 968.7167578489331 463.5896755480889Q972.0633890395164 466.47088120885616 977.3160485902998 466.47088120885616L977.3160485902998 466.47088120885616Q981.9481407679948 466.47088120885616 985.2947719585783 464.87513653520045Q988.6635662696292 463.27939186154475 991.3674669666569 460.575491164517L991.3674669666569 460.575491164517L995.8444173010798 471.2581152298232Q992.1653393034848 474.6047464204067 987.1343109573758 476.532937901074Q982.1032826112669 478.43896626127383 975.5651620733721 478.43896626127383L975.5651620733721 478.43896626127383Q969.5146301857609 478.43896626127383 964.2398075145101 476.28914357593214Q958.9649848432593 474.13932089059045 955.8621479778177 469.41857623102567Q952.7593111123762 464.7199946919284 952.5820061486365 457.051555010194L952.5820061486365 457.051555010194L952.5820061486365 377.9070518209651ZM936.6245594120796 397.05598790483344L994.4038144706961 397.05598790483344L994.4038144706961 408.0710587771512L936.6245594120796 408.0710587771512L936.6245594120796 397.05598790483344ZM1046.4206582077784 395.46024323117774L1046.4206582077784 395.46024323117774Q1057.7460127666404 395.46024323117774 1066.4561191103444 400.4026190954169Q1075.1440623335807 405.3449949596561 1080.08643819782 414.69783179691586Q1085.0288140620592 424.0285055137082 1085.0288140620592 436.9496047462258L1085.0288140620592 436.9496047462258Q1085.0288140620592 449.87070397874345 1080.08643819782 459.20137769553577Q1075.1440623335807 468.5542145327955 1066.4561191103444 473.4965903970347Q1057.7460127666404 478.43896626127383 1046.4206582077784 478.43896626127383L1046.4206582077784 478.43896626127383Q1035.2504454921886 478.43896626127383 1026.4738497870821 473.4965903970347Q1017.6972540819759 468.5542145327955 1012.7548782177367 459.20137769553577Q1007.8125023534975 449.87070397874345 1007.8125023534975 436.9496047462258L1007.8125023534975 436.9496047462258Q1007.8125023534975 424.0285055137082 1012.7548782177367 414.69783179691586Q1017.6972540819759 405.3449949596561 1026.4738497870821 400.4026190954169Q1035.2504454921886 395.46024323117774 1046.4206582077784 395.46024323117774ZM1046.4206582077784 406.4753141034955L1046.4206582077784 406.4753141034955Q1038.2867929962276 406.4753141034955 1032.5465447951608 410.13222898062315Q1026.7841334736263 413.8113069782182 1023.6812966081847 420.59322184125494Q1020.5784597427431 427.3751367042916 1020.5784597427431 436.9496047462258L1020.5784597427431 436.9496047462258Q1020.5784597427431 446.3689309448879 1023.6812966081847 453.21733516932693Q1026.7841334736263 460.08790251423335 1032.5465447951608 463.7669805118284Q1038.2867929962276 467.42389538895605 1046.4206582077784 467.42389538895605L1046.4206582077784 467.42389538895605Q1054.554523419329 467.42389538895605 1060.2947716203957 463.7669805118284Q1066.0571829419305 460.08790251423335 1069.160019807372 453.21733516932693Q1072.2628566728135 446.3689309448879 1072.2628566728135 436.9496047462258L1072.2628566728135 436.9496047462258Q1072.2628566728135 427.3751367042916 1069.160019807372 420.59322184125494Q1066.0571829419305 413.8113069782182 1060.2947716203957 410.13222898062315Q1054.554523419329 406.4753141034955 1046.4206582077784 406.4753141034955ZM1121.9082465198796 510.35385973438775L1109.1422891306343 510.35385973438775L1109.1422891306343 397.05598790483344L1120.3125018462238 397.05598790483344L1121.420657869596 416.51520767524596L1119.6697713526682 414.2988956285019Q1121.7309415561401 408.71378927070697 1125.897608204019 404.4806332614259Q1130.0421117314302 400.24747725214485 1135.9375017757693 397.85386024166127Q1141.8550549405759 395.46024323117774 1148.703459165015 395.46024323117774L1148.703459165015 395.46024323117774Q1158.433069050221 395.46024323117774 1166.6555867436414 400.4026190954169Q1174.8781044370617 405.3449949596561 1179.820480301301 414.6091793150461Q1184.7628561655401 423.8733636704361 1184.7628561655401 436.9496047462258L1184.7628561655401 436.9496047462258Q1184.7628561655401 449.87070397874345 1179.7539909398986 459.20137769553577Q1174.7229625937896 468.5542145327955 1166.4117924184998 473.4965903970347Q1158.122785363677 478.43896626127383 1148.2380336351985 478.43896626127383L1148.2380336351985 478.43896626127383Q1138.3311187862528 478.43896626127383 1130.9064734296603 473.563079758437Q1123.5039911935355 468.7093563760676 1120.3125018462238 461.1960585376054L1120.3125018462238 461.1960585376054L1121.9082465198796 458.80244152712186L1121.9082465198796 510.35385973438775ZM1146.952572648087 467.268753545684L1146.952572648087 467.268753545684Q1158.7655158572327 467.268753545684 1165.3922888769973 458.9797464908614Q1171.9968987762945 450.6685763155713 1171.9968987762945 436.9496047462258L1171.9968987762945 436.9496047462258Q1171.9968987762945 423.2306331768803 1165.5474307202694 414.91946300159026Q1159.075799543777 406.6304559467676 1147.4401612983706 406.6304559467676L1147.4401612983706 406.6304559467676Q1139.7717216166366 406.6304559467676 1134.0314734155695 410.376023305765Q1128.2912252145024 414.1215906647624 1125.0997358671912 420.9035055277991Q1121.9082465198796 427.6854203908358 1121.9082465198796 436.9496047462258L1121.9082465198796 436.9496047462258Q1121.9082465198796 446.03648413787624 1125.0110833853214 452.9070514827827Q1128.113920250763 459.7776188276892 1133.7876790904274 463.5231861866866Q1139.4614379300924 467.268753545684 1146.952572648087 467.268753545684ZM1338.1316498002261 445.08346995777634L1350.8976071894717 449.87070397874345Q1347.528812878421 458.80244152712186 1341.3231391475374 465.27407270361437Q1335.0953022961871 471.7457038801069 1326.7176427594945 475.09233507069035Q1318.3399832228024 478.43896626127383 1308.4330683738563 478.43896626127383L1308.4330683738563 478.43896626127383Q1293.4507989378667 478.43896626127383 1282.5022174269516 471.8121932415092Q1271.5757990365032 465.1854202217446 1265.5917565102945 453.0621933260548Q1259.6077139840856 440.93896643036504 1259.6077139840856 424.18364735698026L1259.6077139840856 424.18364735698026Q1259.6077139840856 407.4283282835955 1265.5917565102945 395.30510138790567Q1271.5757990365032 383.1818744922159 1282.5022174269516 376.55510147245127Q1293.4507989378667 369.9283284526866 1308.122784687312 369.9283284526866L1308.122784687312 369.9283284526866Q1318.3399832228024 369.9283284526866 1326.3187065910806 372.7208816315841Q1334.2974299593593 375.5134348104816 1339.9490256785566 381.0098886864067Q1345.6227845182211 386.5285056827994 1348.9694157088047 394.50722905107784L1348.9694157088047 394.50722905107784L1336.358600162831 400.4026190954169Q1332.8568271289755 391.31573970376644 1326.2300541092109 386.5949950442017Q1319.6032810894462 381.8964135051043 1309.0757988674122 381.8964135051043L1309.0757988674122 381.8964135051043Q1298.393174802106 381.8964135051043 1290.2593095905554 386.9274418512133Q1282.1032812585372 391.9584701973222 1277.5598415627123 401.3556332755168Q1273.016401866887 410.77495947417896 1273.016401866887 424.18364735698026L1273.016401866887 424.18364735698026Q1273.016401866887 437.4371933965095 1277.3160472375703 446.9230089565739Q1281.6378557287212 456.4088245166383 1289.6165790969999 461.4398528627472Q1297.595302465278 466.47088120885616 1308.4330683738563 466.47088120885616L1308.4330683738563 466.47088120885616Q1318.982713716358 466.47088120885616 1326.784132120897 461.129569176203Q1334.6077136459035 455.78825714354997 1338.1316498002261 445.08346995777634L1338.1316498002261 445.08346995777634ZM1385.8266850461578 476.84322158761813L1373.0607276569121 476.84322158761813L1373.0607276569121 360.3538604107525L1385.8266850461578 360.3538604107525L1385.8266850461578 409.0240729572511Q1389.9933516940364 401.8432219258005 1396.8417559184754 398.65173257848915Q1403.7123232633817 395.46024323117774 1411.8461884749322 395.46024323117774L1411.8461884749322 395.46024323117774Q1420.4676423367664 395.46024323117774 1427.4933515249454 398.7403850603589Q1434.4968975926563 401.9983637690726 1438.7300536019375 408.71378927070697Q1442.9632096112182 415.4070516518739 1442.9632096112182 425.77939203063596L1442.9632096112182 425.77939203063596L1442.9632096112182 476.84322158761813L1430.197252221973 476.84322158761813L1430.197252221973 430.25634236505886Q1430.197252221973 417.00279632552963 1424.523493382308 411.8166261361486Q1418.8718976631108 406.6304559467676 1410.5607274878207 406.6304559467676L1410.5607274878207 406.6304559467676Q1404.8204792867537 406.6304559467676 1399.0802310856866 409.33435664379533Q1393.3399828846195 412.06042046129045 1389.5944155256225 418.1996048307714Q1385.8266850461578 424.33878920025234 1385.8266850461578 434.55598773574224L1385.8266850461578 434.55598773574224L1385.8266850461578 476.84322158761813ZM1505.1972518837906 478.43896626127383L1505.1972518837906 478.43896626127383Q1493.8718973249283 478.43896626127383 1485.0066491379525 473.4965903970347Q1476.163564071444 468.5542145327955 1471.199025086737 459.20137769553577Q1466.2566492224978 449.87070397874345 1466.2566492224978 436.9496047462258L1466.2566492224978 436.9496047462258Q1466.2566492224978 424.0285055137082 1471.199025086737 414.69783179691586Q1476.163564071444 405.3449949596561 1484.7628548128105 400.4026190954169Q1493.3843086746447 395.46024323117774 1504.3993795469628 395.46024323117774L1504.3993795469628 395.46024323117774Q1515.5695922625523 395.46024323117774 1523.4596631489612 400.24747725214485Q1531.3718971558374 405.0347112731119 1535.5164006832488 413.25722896653224Q1539.6609042106597 421.4797466599525 1539.6609042106597 431.67478207497504L1539.6609042106597 431.67478207497504Q1539.6609042106597 434.40084589247016 1539.505762367388 436.63932105968166Q1539.3506205241156 438.85563310642567 1539.0181737171042 440.6286827438209L1539.0181737171042 440.6286827438209L1474.5678193977878 440.6286827438209L1474.5678193977878 429.2811650644915L1533.433067359309 429.2811650644915L1526.8949468214141 430.566626051603Q1526.8949468214141 419.086129649469 1520.6006206086613 412.8582927981183Q1514.2841312754408 406.6304559467676 1504.0890958604186 406.6304559467676L1504.0890958604186 406.6304559467676Q1496.2655143354118 406.6304559467676 1490.5917554957473 410.2208814624929Q1484.94015977655 413.8113069782182 1481.8151597906408 420.59322184125494Q1478.7123229251993 427.3751367042916 1478.7123229251993 436.9496047462258L1478.7123229251993 436.9496047462258Q1478.7123229251993 446.3689309448879 1481.9038122725105 453.21733516932693Q1485.0953016198223 460.08790251423335 1490.9242023027587 463.67832802995866Q1496.7309398652283 467.268753545684 1504.8869681972465 467.268753545684L1504.8869681972465 467.268753545684Q1513.6635639023525 467.268753545684 1519.1600177782775 463.9221223551005Q1524.656471654203 460.575491164517 1528.0252659652538 454.8130798429826L1528.0252659652538 454.8130798429826L1538.065159537004 460.73063300778915Q1535.028812032965 466.160597522312 1530.3302304938675 470.14995920645123Q1525.6316489547703 474.13932089059045 1519.3151596215498 476.28914357593214Q1513.020833408797 478.43896626127383 1505.1972518837906 478.43896626127383ZM1596.952570618993 395.46024323117774L1596.952570618993 395.46024323117774Q1605.2415776738153 395.46024323117774 1611.5580670070358 398.00900208493334Q1617.852393219789 400.557760938689 1622.4844853974837 405.3449949596561Q1627.1165775751788 410.13222898062315 1629.9756201154787 416.6925126389855L1629.9756201154787 416.6925126389855L1617.852393219789 422.4327608400525Q1615.3036343660333 414.7643211583182 1610.1174641766524 410.7084701127766Q1604.9312939872711 406.6304559467676 1596.6422869324488 406.6304559467676L1596.6422869324488 406.6304559467676Q1588.66356356417 406.6304559467676 1582.9011522426358 410.2208814624929Q1577.1609040415688 413.8113069782182 1574.1245565375293 420.59322184125494Q1571.1103721539575 427.3751367042916 1571.1103721539575 436.9496047462258L1571.1103721539575 436.9496047462258Q1571.1103721539575 446.3689309448879 1574.1245565375293 453.21733516932693Q1577.1609040415688 460.08790251423335 1582.9011522426358 463.67832802995866Q1588.66356356417 467.268753545684 1596.6422869324488 467.268753545684L1596.6422869324488 467.268753545684Q1602.8479606633318 467.268753545684 1607.4135634796244 465.3627251854841Q1611.9570031754497 463.43453370481683 1614.9046981976194 459.7776188276892Q1617.852393219789 456.0985408300941 1618.9827123636283 450.82371815884335L1618.9827123636283 450.82371815884335L1630.7734924523065 454.99038480672215Q1628.069591755279 462.32637768144485 1623.3710102161817 467.57903723222813Q1618.650265556617 472.8538599034789 1612.0234925368522 475.6464130823764Q1605.4188826375548 478.43896626127383 1596.952570618993 478.43896626127383L1596.952570618993 478.43896626127383Q1585.782357903403 478.43896626127383 1577.0057621982965 473.4965903970347Q1568.2291664931904 468.5542145327955 1563.2867906289512 459.20137769553577Q1558.344414764712 449.87070397874345 1558.344414764712 436.9496047462258L1558.344414764712 436.9496047462258Q1558.344414764712 424.0285055137082 1563.2867906289512 414.69783179691586Q1568.2291664931904 405.3449949596561 1577.0057621982965 400.4026190954169Q1585.782357903403 395.46024323117774 1596.952570618993 395.46024323117774ZM1707.214094944508 397.05598790483344L1723.3266835243367 397.05598790483344L1688.8630311974675 431.51964023170297L1685.826683693428 434.55598773574224L1659.6742015418486 460.73063300778915L1659.6742015418486 444.7731862712322L1707.214094944508 397.05598790483344ZM1653.291222847226 360.3538604107525L1666.0571802364716 360.3538604107525L1666.0571802364716 476.84322158761813L1653.291222847226 476.84322158761813L1653.291222847226 360.3538604107525ZM1679.2885631555332 432.1623707252587L1689.9933503413067 424.9815196938081L1725.2548750050041 476.84322158761813L1709.7628537982632 476.84322158761813L1679.2885631555332 432.1623707252587Z " fill="#3c1a5b" transform="matrix(0.5071714321162513,0,0,0.5071714321162513,0,79.20094791210518)"/></g></svg>